<?xml version="1.0" standalone="no"?>
<!DOCTYPE svg PUBLIC "-//W3C//DTD SVG 20010904//EN"
 "http://www.w3.org/TR/2001/REC-SVG-20010904/DTD/svg10.dtd">
<svg version="1.0" xmlns="http://www.w3.org/2000/svg"
 width="236.000000pt" height="236.000000pt" viewBox="0 0 236.000000 236.000000"
 preserveAspectRatio="xMidYMid meet">
<metadata>
Created by potrace 1.11, written by Peter Selinger 2001-2013
</metadata>
<g transform="translate(0.000000,236.000000) scale(0.100000,-0.100000)"
fill="#000000" stroke="none">
<path d="M492 2184 c-36 -15 -72 -67 -72 -104 l-1 -25 -22 25 c-80 91 -207 36
-207 -89 0 -30 7 -49 29 -74 29 -32 125 -87 154 -87 8 0 39 -9 70 -19 l57 -20
17 32 c20 40 50 82 88 125 38 43 43 52 50 92 17 96 -78 180 -163 144z"/>
<path d="M1345 2158 c-22 -18 -41 -36 -43 -40 -2 -3 -15 -3 -30 1 -38 9 -122
2 -166 -15 -11 -4 -26 2 -40 15 -18 17 -32 21 -55 18 -74 -12 -238 -144 -268
-216 -8 -18 -13 -49 -11 -67 1 -21 -4 -42 -15 -54 -29 -34 -63 -93 -82 -142
-10 -27 -20 -48 -24 -48 -180 -11 -300 -88 -366 -233 -53 -115 -52 -223 3
-336 29 -61 109 -146 165 -176 20 -11 37 -22 37 -25 0 -3 -19 -13 -43 -23
-104 -44 -151 -139 -75 -154 25 -5 27 -7 15 -22 -23 -25 -55 -94 -57 -121 -4
-52 1 -71 28 -101 22 -25 37 -32 77 -34 27 -2 68 3 92 11 39 13 45 13 68 -2
41 -27 105 -24 146 7 l34 26 -1 -77 c0 -42 -4 -82 -8 -88 -4 -7 -9 -20 -11
-29 -2 -10 -6 -30 -10 -46 l-7 -27 671 0 671 0 1 38 c1 20 1 39 1 42 0 3 -3
51 -6 106 -5 102 -26 186 -67 267 -15 28 -17 42 -10 51 52 62 48 342 -5 424
-13 19 -13 22 1 22 8 0 16 -1 18 -1 1 -1 21 8 44 19 168 86 197 381 51 523
-45 44 -108 63 -155 47 -18 -6 -26 2 -59 58 -41 70 -131 167 -234 253 -36 30
-73 68 -83 85 -35 58 -89 96 -135 96 -10 0 -35 -15 -57 -32z"/>
</g>
</svg>
